<mxfile host="app.diagrams.net" agent="Mozilla/5.0 (Windows NT 10.0; Win64; x64) AppleWebKit/537.36 (KHTML, like Gecko) Chrome/131.0.0.0 Safari/537.36 Edg/131.0.0.0" version="24.8.4">
  <diagram name="Page-1" id="08iG23ellMdxEoMAhPSL">
    <mxGraphModel dx="2132" dy="567" grid="1" gridSize="10" guides="1" tooltips="1" connect="1" arrows="1" fold="1" page="1" pageScale="1" pageWidth="850" pageHeight="1100" math="0" shadow="0">
      <root>
        <mxCell id="0" />
        <mxCell id="1" parent="0" />
        <mxCell id="29N_t15lai3JjT0ZTXth-18" value="" style="rounded=1;whiteSpace=wrap;html=1;rotation=90;align=center;" vertex="1" parent="1">
          <mxGeometry x="30" y="144.5" width="327.5" height="195" as="geometry" />
        </mxCell>
        <mxCell id="29N_t15lai3JjT0ZTXth-19" value="" style="rounded=1;whiteSpace=wrap;html=1;rotation=90;align=center;" vertex="1" parent="1">
          <mxGeometry x="-240" y="147.75" width="327.5" height="195" as="geometry" />
        </mxCell>
        <mxCell id="29N_t15lai3JjT0ZTXth-16" value="" style="rounded=1;whiteSpace=wrap;html=1;rotation=90;align=center;" vertex="1" parent="1">
          <mxGeometry x="294.5" y="147.75" width="327.5" height="195" as="geometry" />
        </mxCell>
        <mxCell id="29N_t15lai3JjT0ZTXth-14" value="" style="rounded=1;whiteSpace=wrap;html=1;rotation=90;align=center;" vertex="1" parent="1">
          <mxGeometry x="558.75" y="147.75" width="327.5" height="195" as="geometry" />
        </mxCell>
        <mxCell id="29N_t15lai3JjT0ZTXth-25" style="edgeStyle=orthogonalEdgeStyle;rounded=0;orthogonalLoop=1;jettySize=auto;html=1;" edge="1" parent="1" source="29N_t15lai3JjT0ZTXth-6" target="29N_t15lai3JjT0ZTXth-11">
          <mxGeometry relative="1" as="geometry" />
        </mxCell>
        <mxCell id="29N_t15lai3JjT0ZTXth-6" value="CSV file" style="sketch=0;pointerEvents=1;shadow=0;dashed=0;html=1;strokeColor=none;fillColor=#505050;labelPosition=center;verticalLabelPosition=bottom;verticalAlign=top;outlineConnect=0;align=center;shape=mxgraph.office.users.csv_file;" vertex="1" parent="1">
          <mxGeometry x="164.25" y="323" width="59" height="43" as="geometry" />
        </mxCell>
        <mxCell id="29N_t15lai3JjT0ZTXth-24" style="edgeStyle=orthogonalEdgeStyle;rounded=0;orthogonalLoop=1;jettySize=auto;html=1;" edge="1" parent="1" source="29N_t15lai3JjT0ZTXth-8" target="29N_t15lai3JjT0ZTXth-6">
          <mxGeometry relative="1" as="geometry" />
        </mxCell>
        <mxCell id="29N_t15lai3JjT0ZTXth-8" value="Python" style="outlineConnect=0;dashed=0;verticalLabelPosition=bottom;verticalAlign=top;align=center;html=1;shape=mxgraph.aws3.android;fillColor=#FFD44F;gradientColor=none;" vertex="1" parent="1">
          <mxGeometry x="-113.75" y="287.5" width="73.5" height="84" as="geometry" />
        </mxCell>
        <mxCell id="29N_t15lai3JjT0ZTXth-27" style="edgeStyle=orthogonalEdgeStyle;rounded=0;orthogonalLoop=1;jettySize=auto;html=1;" edge="1" parent="1" source="29N_t15lai3JjT0ZTXth-10" target="29N_t15lai3JjT0ZTXth-9">
          <mxGeometry relative="1" as="geometry" />
        </mxCell>
        <mxCell id="29N_t15lai3JjT0ZTXth-29" style="edgeStyle=orthogonalEdgeStyle;rounded=0;orthogonalLoop=1;jettySize=auto;html=1;" edge="1" parent="1" source="29N_t15lai3JjT0ZTXth-10" target="29N_t15lai3JjT0ZTXth-12">
          <mxGeometry relative="1" as="geometry">
            <Array as="points">
              <mxPoint x="458" y="440" />
              <mxPoint x="723" y="440" />
            </Array>
          </mxGeometry>
        </mxCell>
        <mxCell id="29N_t15lai3JjT0ZTXth-11" value="Azure Data&amp;nbsp;&lt;div&gt;Factory&lt;/div&gt;" style="image;aspect=fixed;html=1;points=[];align=center;fontSize=12;image=img/lib/azure2/databases/Data_Factory.svg;" vertex="1" parent="1">
          <mxGeometry x="159.75" y="144.5" width="68" height="68" as="geometry" />
        </mxCell>
        <mxCell id="29N_t15lai3JjT0ZTXth-12" value="Power BI" style="image;aspect=fixed;html=1;points=[];align=center;fontSize=12;image=img/lib/azure2/analytics/Power_BI_Embedded.svg;" vertex="1" parent="1">
          <mxGeometry x="697" y="208" width="51" height="68" as="geometry" />
        </mxCell>
        <mxCell id="29N_t15lai3JjT0ZTXth-15" value="Visualization" style="text;html=1;align=center;verticalAlign=middle;whiteSpace=wrap;rounded=0;" vertex="1" parent="1">
          <mxGeometry x="692.5" y="88" width="60" height="30" as="geometry" />
        </mxCell>
        <mxCell id="29N_t15lai3JjT0ZTXth-17" value="Processing" style="text;html=1;align=center;verticalAlign=middle;whiteSpace=wrap;rounded=0;" vertex="1" parent="1">
          <mxGeometry x="428.25" y="88" width="60" height="30" as="geometry" />
        </mxCell>
        <mxCell id="29N_t15lai3JjT0ZTXth-20" value="Data Collection" style="text;html=1;align=center;verticalAlign=middle;whiteSpace=wrap;rounded=0;" vertex="1" parent="1">
          <mxGeometry x="-146.87" y="88" width="141.25" height="30" as="geometry" />
        </mxCell>
        <mxCell id="29N_t15lai3JjT0ZTXth-23" style="edgeStyle=orthogonalEdgeStyle;rounded=0;orthogonalLoop=1;jettySize=auto;html=1;" edge="1" parent="1" source="29N_t15lai3JjT0ZTXth-21" target="29N_t15lai3JjT0ZTXth-8">
          <mxGeometry relative="1" as="geometry" />
        </mxCell>
        <mxCell id="29N_t15lai3JjT0ZTXth-21" value="Data from&amp;nbsp;&lt;div&gt;BBC news&lt;/div&gt;" style="shape=image;html=1;verticalAlign=top;verticalLabelPosition=bottom;labelBackgroundColor=#ffffff;imageAspect=0;aspect=fixed;image=https://cdn1.iconfinder.com/data/icons/KDE_Crystal_Diamond_2.5_Classical_Mod/128x128/mimetypes/html.png" vertex="1" parent="1">
          <mxGeometry x="-111.5" y="134" width="70.5" height="70.5" as="geometry" />
        </mxCell>
        <mxCell id="29N_t15lai3JjT0ZTXth-22" value="In&lt;span style=&quot;background-color: initial;&quot;&gt;gestion&lt;/span&gt;" style="text;html=1;align=center;verticalAlign=middle;whiteSpace=wrap;rounded=0;" vertex="1" parent="1">
          <mxGeometry x="163.25" y="88" width="60" height="30" as="geometry" />
        </mxCell>
        <mxCell id="29N_t15lai3JjT0ZTXth-28" style="edgeStyle=orthogonalEdgeStyle;rounded=0;orthogonalLoop=1;jettySize=auto;html=1;entryX=1;entryY=0.5;entryDx=0;entryDy=0;entryPerimeter=0;" edge="1" parent="1" source="29N_t15lai3JjT0ZTXth-9" target="29N_t15lai3JjT0ZTXth-10">
          <mxGeometry relative="1" as="geometry">
            <Array as="points">
              <mxPoint x="590" y="190" />
              <mxPoint x="590" y="350" />
            </Array>
          </mxGeometry>
        </mxCell>
        <mxCell id="29N_t15lai3JjT0ZTXth-30" value="&lt;h1&gt;Segment Analysis Architecture&lt;/h1&gt;" style="text;html=1;align=center;verticalAlign=middle;whiteSpace=wrap;rounded=0;" vertex="1" parent="1">
          <mxGeometry y="20" width="420" height="30" as="geometry" />
        </mxCell>
        <mxCell id="29N_t15lai3JjT0ZTXth-9" value="Azure Machine&lt;div&gt;Learning&amp;nbsp;&lt;/div&gt;" style="outlineConnect=0;dashed=0;verticalLabelPosition=bottom;verticalAlign=top;align=center;html=1;shape=mxgraph.aws3.machine_learning;fillColor=#2E73B8;gradientColor=none;" vertex="1" parent="1">
          <mxGeometry x="420" y="144.5" width="76.5" height="93" as="geometry" />
        </mxCell>
        <mxCell id="29N_t15lai3JjT0ZTXth-10" value="Blob Storage" style="verticalLabelPosition=bottom;html=1;verticalAlign=top;align=center;strokeColor=none;fillColor=#00BEF2;shape=mxgraph.azure.storage_blob;shadow=0;" vertex="1" parent="1">
          <mxGeometry x="433.25" y="327.75" width="50" height="45" as="geometry" />
        </mxCell>
        <mxCell id="29N_t15lai3JjT0ZTXth-31" style="edgeStyle=orthogonalEdgeStyle;rounded=0;orthogonalLoop=1;jettySize=auto;html=1;entryX=0;entryY=0.5;entryDx=0;entryDy=0;entryPerimeter=0;" edge="1" parent="1" source="29N_t15lai3JjT0ZTXth-11" target="29N_t15lai3JjT0ZTXth-10">
          <mxGeometry relative="1" as="geometry" />
        </mxCell>
      </root>
    </mxGraphModel>
  </diagram>
</mxfile>
